<svg width="13" height="8" viewBox="0 0 13 8" fill="none" xmlns="http://www.w3.org/2000/svg">
<path d="M4.44596 6.24519L11.5708 0.213511C11.739 0.0711704 11.9351 0 12.1593 0C12.3835 0 12.5797 0.0711704 12.7478 0.213511C12.9159 0.355852 13 0.525 13 0.720955C13 0.916911 12.9159 1.08582 12.7478 1.22769L5.03445 7.77536C4.86631 7.9177 4.67015 7.98887 4.44596 7.98887C4.22178 7.98887 4.02562 7.9177 3.85748 7.77536L0.242507 4.71503C0.074369 4.57269 -0.00633752 4.40378 0.000388011 4.2083C0.00711354 4.01282 0.0948255 3.84367 0.263524 3.70086C0.432223 3.55804 0.632028 3.48687 0.862938 3.48735C1.09385 3.48782 1.29337 3.55899 1.46151 3.70086L4.44596 6.24519Z" fill="#444444"/>
</svg>
